<svg width="587" height="288" viewBox="0 0 587 288" fill="none" xmlns="http://www.w3.org/2000/svg">
<circle cx="5.48047" cy="81.792" r="3" stroke="#29333F" stroke-width="4"/>
<circle cx="3" cy="3" r="3" transform="matrix(1 0 0 -1 2.48047 206.901)" stroke="#29333F" stroke-width="4"/>
<circle cx="20.7383" cy="71.1865" r="3" stroke="#2B3541" stroke-width="4"/>
<circle cx="3" cy="3" r="3" transform="matrix(1 0 0 -1 17.7383 217.507)" stroke="#2B3541" stroke-width="4"/>
<circle cx="36.7383" cy="60.5811" r="3" stroke="#2C3743" stroke-width="4"/>
<circle cx="3" cy="3" r="3" transform="matrix(1 0 0 -1 33.7383 228.112)" stroke="#2C3743" stroke-width="4"/>
<circle cx="52.7383" cy="49.9746" r="3" stroke="#2E3945" stroke-width="4"/>
<circle cx="3" cy="3" r="3" transform="matrix(1 0 0 -1 49.7383 238.719)" stroke="#2E3945" stroke-width="4"/>
<circle cx="68.7383" cy="39.3691" r="3" stroke="#2F3B47" stroke-width="4"/>
<circle cx="3" cy="3" r="3" transform="matrix(1 0 0 -1 65.7383 249.324)" stroke="#2F3B47" stroke-width="4"/>
<circle cx="84.7383" cy="28.7627" r="3" stroke="#313D49" stroke-width="4"/>
<circle cx="3" cy="3" r="3" transform="matrix(1 0 0 -1 81.7383 259.931)" stroke="#313D49" stroke-width="4"/>
<circle cx="100.738" cy="18.1572" r="3" stroke="#333F4B" stroke-width="4"/>
<circle cx="3" cy="3" r="3" transform="matrix(1 0 0 -1 97.7383 270.536)" stroke="#333F4B" stroke-width="4"/>
<path d="M52.8398 235.719L154.41 235.719C199.333 235.719 170.143 142.875 225.057 142.875H468.174" stroke="url(#paint0_linear_236_28628)" stroke-width="5.05132" stroke-linecap="round" stroke-linejoin="round"/>
<path d="M36.8398 225.112L154.41 225.112C199.333 225.112 170.143 132.268 225.057 132.268H468.174" stroke="url(#paint1_linear_236_28628)" stroke-width="5.05132" stroke-linecap="round" stroke-linejoin="round"/>
<path d="M20.8398 214.507L154.41 214.507C199.333 214.507 170.143 121.663 225.057 121.663H468.174" stroke="url(#paint2_linear_236_28628)" stroke-width="5.05132" stroke-linecap="round" stroke-linejoin="round"/>
<path d="M4.83984 203.901L154.41 203.901C199.333 203.901 170.143 111.058 225.057 111.058H468.174" stroke="url(#paint3_linear_236_28628)" stroke-width="5.05132" stroke-linecap="round" stroke-linejoin="round"/>
<path d="M100.84 18.2568L154.41 18.2568C199.333 18.2568 170.143 111.101 225.057 111.101H468.174" stroke="url(#paint4_linear_236_28628)" stroke-width="5.05132" stroke-linecap="round" stroke-linejoin="round"/>
<path d="M84.8398 28.8623L154.41 28.8623C199.333 28.8623 170.143 121.706 225.057 121.706H468.174" stroke="url(#paint5_linear_236_28628)" stroke-width="5.05132" stroke-linecap="round" stroke-linejoin="round"/>
<path d="M68.8398 39.4688L154.41 39.4688C199.333 39.4688 170.143 132.313 225.057 132.313H468.174" stroke="url(#paint6_linear_236_28628)" stroke-width="5.05132" stroke-linecap="round" stroke-linejoin="round"/>
<path d="M52.8398 50.0742L154.41 50.0742C199.333 50.0742 170.143 142.918 225.057 142.918H468.174" stroke="url(#paint7_linear_236_28628)" stroke-width="5.05132" stroke-linecap="round" stroke-linejoin="round"/>
<path d="M36.8398 60.6807L154.41 60.6807C199.333 60.6807 170.143 153.524 225.057 153.524H468.174" stroke="url(#paint8_linear_236_28628)" stroke-width="5.05132" stroke-linecap="round" stroke-linejoin="round"/>
<path d="M20.8398 71.2861L154.41 71.2861C199.333 71.2861 170.143 164.13 225.057 164.13H468.174" stroke="url(#paint9_linear_236_28628)" stroke-width="5.05132" stroke-linecap="round" stroke-linejoin="round"/>
<path d="M4.83594 81.8916H154.409C199.332 81.8916 170.142 174.735 225.056 174.735H468.174" stroke="url(#paint10_linear_236_28628)" stroke-width="5.05132" stroke-linecap="round" stroke-linejoin="round"/>
<path d="M100.84 267.536L154.41 267.536C199.333 267.536 170.143 174.692 225.057 174.692H468.174" stroke="url(#paint11_linear_236_28628)" stroke-width="5.05132" stroke-linecap="round" stroke-linejoin="round"/>
<path d="M84.8398 256.931L154.41 256.931C199.333 256.931 170.143 164.087 225.057 164.087H468.174" stroke="url(#paint12_linear_236_28628)" stroke-width="5.05132" stroke-linecap="round" stroke-linejoin="round"/>
<path d="M68.8398 246.324L154.41 246.324C199.333 246.324 170.143 153.48 225.057 153.48H468.174" stroke="url(#paint13_linear_236_28628)" stroke-width="5.05132" stroke-linecap="round" stroke-linejoin="round"/>
<line x1="257.319" y1="111.171" x2="468.648" y2="111.171" stroke="url(#paint14_linear_236_28628)" stroke-width="5.05132" stroke-linecap="round" stroke-linejoin="round"/>
<line x1="257.319" y1="121.858" x2="468.648" y2="121.858" stroke="url(#paint15_linear_236_28628)" stroke-width="5.05132" stroke-linecap="round" stroke-linejoin="round"/>
<line x1="257.319" y1="132.51" x2="468.648" y2="132.51" stroke="url(#paint16_linear_236_28628)" stroke-width="5.05132" stroke-linecap="round" stroke-linejoin="round"/>
<line x1="257.319" y1="143.137" x2="468.648" y2="143.137" stroke="url(#paint17_linear_236_28628)" stroke-width="5.05132" stroke-linecap="round" stroke-linejoin="round"/>
<line x1="257.319" y1="153.676" x2="468.648" y2="153.676" stroke="url(#paint18_linear_236_28628)" stroke-width="5.05132" stroke-linecap="round" stroke-linejoin="round"/>
<line x1="257.319" y1="164.303" x2="468.648" y2="164.303" stroke="url(#paint19_linear_236_28628)" stroke-width="5.05132" stroke-linecap="round" stroke-linejoin="round"/>
<line x1="257.319" y1="174.93" x2="468.648" y2="174.93" stroke="url(#paint20_linear_236_28628)" stroke-width="5.05132" stroke-linecap="round" stroke-linejoin="round"/>
<g filter="url(#filter0_ddd_236_28628)">
<g filter="url(#filter1_i_236_28628)">
<rect x="232.492" y="77.8896" width="126.698" height="126.698" rx="16.2546" fill="#16A394"/>
</g>
<rect x="233.992" y="79.3896" width="123.698" height="123.698" rx="14.7546" stroke="#66EAEA" stroke-opacity="0.5" stroke-width="3"/>
<g filter="url(#filter2_d_236_28628)">
<path fill-rule="evenodd" clip-rule="evenodd" d="M318.614 160.228L287.913 168.785C286.975 169.046 286.077 168.282 286.274 167.39L297.241 117.894C297.446 116.968 298.804 116.822 299.232 117.679L319.54 158.315C319.922 159.082 319.486 159.986 318.614 160.228ZM323.879 158.209L300.366 111.158C299.776 109.982 298.546 109.205 297.151 109.132C295.72 109.054 294.438 109.704 293.715 110.811L268.214 149.733C267.424 150.946 267.44 152.442 268.259 153.64L280.724 171.837C281.467 172.923 282.754 173.552 284.092 173.552C284.472 173.552 284.853 173.501 285.228 173.396L321.411 163.312C322.519 163.003 323.426 162.264 323.9 161.285C324.373 160.304 324.365 159.183 323.879 158.209Z" fill="#EDFFF5"/>
</g>
</g>
<g filter="url(#filter3_dd_236_28628)">
<path d="M493.379 213.579C529.261 213.579 558.348 201.06 558.348 185.617V164.235H428.41V185.617C428.41 201.06 457.498 213.579 493.379 213.579Z" fill="url(#paint21_linear_236_28628)"/>
<ellipse cx="493.379" cy="164.234" rx="64.9691" ry="23.027" fill="url(#paint22_linear_236_28628)"/>
<ellipse cx="493.379" cy="164.234" rx="64.9691" ry="23.027" fill="url(#paint23_radial_236_28628)" fill-opacity="0.44"/>
<path d="M493.379 183.972C527.443 183.972 555.058 174.374 555.058 162.535V146.142H431.699V162.535C431.699 174.374 459.314 183.972 493.379 183.972Z" fill="url(#paint24_linear_236_28628)"/>
<path d="M493.379 183.972C527.443 183.972 555.058 174.374 555.058 162.535V146.142H431.699V162.535C431.699 174.374 459.314 183.972 493.379 183.972Z" fill="#C6D4DB" fill-opacity="0.284"/>
<path opacity="0.5" d="M493.379 177.212C527.443 177.212 555.058 167.615 555.058 155.775V139.382H431.699V155.775C431.699 167.615 459.314 177.212 493.379 177.212Z" fill="url(#paint25_linear_236_28628)"/>
<path d="M493.379 174.104C529.261 174.104 558.348 163.517 558.348 150.457V128.05H428.41V150.457C428.41 163.517 457.498 174.104 493.379 174.104Z" fill="url(#paint26_linear_236_28628)"/>
<ellipse cx="493.379" cy="126.404" rx="64.9691" ry="24.6718" fill="url(#paint27_linear_236_28628)"/>
<ellipse cx="493.379" cy="126.404" rx="64.9691" ry="24.6718" fill="url(#paint28_radial_236_28628)" fill-opacity="0.44"/>
<path d="M493.379 147.788C527.443 147.788 555.058 137.773 555.058 125.418V108.313H431.699V125.418C431.699 137.773 459.314 147.788 493.379 147.788Z" fill="url(#paint29_linear_236_28628)"/>
<path d="M493.379 147.788C527.443 147.788 555.058 137.773 555.058 125.418V108.313H431.699V125.418C431.699 137.773 459.314 147.788 493.379 147.788Z" fill="#C6D4DB" fill-opacity="0.284"/>
<path opacity="0.5" d="M493.379 140.277C527.443 140.277 555.058 130.262 555.058 117.907V100.802H431.699V117.907C431.699 130.262 459.314 140.277 493.379 140.277Z" fill="url(#paint30_linear_236_28628)"/>
<path d="M493.379 137.046C529.261 137.046 558.348 126.301 558.348 113.045V90.3016H428.41V113.045C428.41 126.301 457.498 137.046 493.379 137.046Z" fill="url(#paint31_linear_236_28628)"/>
<ellipse cx="493.383" cy="89.5486" rx="64.9691" ry="24.0016" fill="url(#paint32_linear_236_28628)"/>
<path d="M557.226 89.5486C557.226 92.4179 555.655 95.2914 552.506 98.0426C549.358 100.792 544.739 103.319 538.933 105.463C527.33 109.75 511.226 112.424 493.383 112.424C475.54 112.424 459.436 109.75 447.833 105.463C442.028 103.319 437.408 100.792 434.261 98.0426C431.111 95.2914 429.541 92.4179 429.541 89.5486C429.541 86.6793 431.111 83.8058 434.261 81.0546C437.408 78.3055 442.028 75.7785 447.833 73.6337C459.436 69.3474 475.54 66.6736 493.383 66.6736C511.226 66.6736 527.33 69.3474 538.933 73.6337C544.739 75.7785 549.358 78.3055 552.506 81.0546C555.655 83.8058 557.226 86.6793 557.226 89.5486Z" stroke="url(#paint33_radial_236_28628)" stroke-opacity="0.46" stroke-width="2.25326"/>
</g>
<g filter="url(#filter4_i_236_28628)">
<rect x="519.805" y="60.9492" width="55.2392" height="55.2392" rx="27.6196" fill="#04C8BB"/>
</g>
<g filter="url(#filter5_d_236_28628)">
<path d="M560.847 81.4385L545.282 97.0132C544.501 97.8646 543.234 97.8646 542.453 97.0132L534.316 87.9238" stroke="white" stroke-width="6.80954"/>
</g>
<path d="M313.757 267.696C312.73 267.696 311.824 267.496 311.037 267.096C310.264 266.696 309.657 266.136 309.217 265.416C308.79 264.683 308.577 263.843 308.577 262.896V253.776C308.577 253.709 308.597 253.656 308.637 253.616C308.69 253.563 308.75 253.536 308.817 253.536H311.157C311.224 253.536 311.277 253.563 311.317 253.616C311.37 253.656 311.397 253.709 311.397 253.776V262.916C311.397 263.623 311.61 264.196 312.037 264.636C312.477 265.063 313.05 265.276 313.757 265.276C314.464 265.276 315.03 265.063 315.457 264.636C315.897 264.196 316.117 263.623 316.117 262.916V253.776C316.117 253.709 316.137 253.656 316.177 253.616C316.23 253.563 316.29 253.536 316.357 253.536H318.697C318.764 253.536 318.817 253.563 318.857 253.616C318.91 253.656 318.937 253.709 318.937 253.776V262.896C318.937 263.843 318.717 264.683 318.277 265.416C317.85 266.136 317.244 266.696 316.457 267.096C315.684 267.496 314.784 267.696 313.757 267.696ZM330.295 253.776C330.295 253.709 330.315 253.656 330.355 253.616C330.408 253.563 330.468 253.536 330.535 253.536H332.875C332.942 253.536 332.995 253.563 333.035 253.616C333.088 253.656 333.115 253.709 333.115 253.776V267.296C333.115 267.363 333.088 267.423 333.035 267.476C332.995 267.516 332.942 267.536 332.875 267.536H330.615C330.482 267.536 330.388 267.483 330.335 267.376L325.155 258.816C325.128 258.776 325.102 258.763 325.075 258.776C325.048 258.776 325.035 258.803 325.035 258.856L325.075 267.296C325.075 267.363 325.048 267.423 324.995 267.476C324.955 267.516 324.902 267.536 324.835 267.536H322.495C322.428 267.536 322.368 267.516 322.315 267.476C322.275 267.423 322.255 267.363 322.255 267.296V253.776C322.255 253.709 322.275 253.656 322.315 253.616C322.368 253.563 322.428 253.536 322.495 253.536H324.755C324.888 253.536 324.982 253.589 325.035 253.696L330.195 262.216C330.222 262.256 330.248 262.276 330.275 262.276C330.302 262.263 330.315 262.229 330.315 262.176L330.295 253.776ZM336.796 267.536C336.729 267.536 336.669 267.516 336.616 267.476C336.576 267.423 336.556 267.363 336.556 267.296V253.776C336.556 253.709 336.576 253.656 336.616 253.616C336.669 253.563 336.729 253.536 336.796 253.536H339.136C339.203 253.536 339.256 253.563 339.296 253.616C339.349 253.656 339.376 253.709 339.376 253.776V265.016C339.376 265.083 339.409 265.116 339.476 265.116H346.016C346.083 265.116 346.136 265.143 346.176 265.196C346.229 265.236 346.256 265.289 346.256 265.356V267.296C346.256 267.363 346.229 267.423 346.176 267.476C346.136 267.516 346.083 267.536 346.016 267.536H336.796ZM349.241 267.536C349.175 267.536 349.115 267.516 349.061 267.476C349.021 267.423 349.001 267.363 349.001 267.296V253.776C349.001 253.709 349.021 253.656 349.061 253.616C349.115 253.563 349.175 253.536 349.241 253.536H351.581C351.648 253.536 351.701 253.563 351.741 253.616C351.795 253.656 351.821 253.709 351.821 253.776V267.296C351.821 267.363 351.795 267.423 351.741 267.476C351.701 267.516 351.648 267.536 351.581 267.536H349.241ZM364.255 253.696C364.322 253.589 364.415 253.536 364.535 253.536H366.875C366.942 253.536 366.995 253.563 367.035 253.616C367.088 253.656 367.115 253.709 367.115 253.776V267.296C367.115 267.363 367.088 267.423 367.035 267.476C366.995 267.516 366.942 267.536 366.875 267.536H364.535C364.468 267.536 364.408 267.516 364.355 267.476C364.315 267.423 364.295 267.363 364.295 267.296V258.476C364.295 258.423 364.282 258.396 364.255 258.396C364.228 258.396 364.202 258.416 364.175 258.456L362.055 261.776C361.988 261.883 361.895 261.936 361.775 261.936H360.595C360.475 261.936 360.382 261.883 360.315 261.776L358.195 258.456C358.168 258.416 358.142 258.403 358.115 258.416C358.088 258.416 358.075 258.443 358.075 258.496V267.296C358.075 267.363 358.048 267.423 357.995 267.476C357.955 267.516 357.902 267.536 357.835 267.536H355.495C355.428 267.536 355.368 267.516 355.315 267.476C355.275 267.423 355.255 267.363 355.255 267.296V253.776C355.255 253.709 355.275 253.656 355.315 253.616C355.368 253.563 355.428 253.536 355.495 253.536H357.835C357.955 253.536 358.048 253.589 358.115 253.696L361.115 258.356C361.155 258.436 361.195 258.436 361.235 258.356L364.255 253.696ZM370.792 267.536C370.725 267.536 370.665 267.516 370.612 267.476C370.572 267.423 370.552 267.363 370.552 267.296V253.776C370.552 253.709 370.572 253.656 370.612 253.616C370.665 253.563 370.725 253.536 370.792 253.536H373.132C373.199 253.536 373.252 253.563 373.292 253.616C373.345 253.656 373.372 253.709 373.372 253.776V267.296C373.372 267.363 373.345 267.423 373.292 267.476C373.252 267.516 373.199 267.536 373.132 267.536H370.792ZM386.466 253.536C386.533 253.536 386.586 253.563 386.626 253.616C386.679 253.656 386.706 253.709 386.706 253.776V255.736C386.706 255.803 386.679 255.863 386.626 255.916C386.586 255.956 386.533 255.976 386.466 255.976H382.886C382.819 255.976 382.786 256.009 382.786 256.076V267.296C382.786 267.363 382.759 267.423 382.706 267.476C382.666 267.516 382.613 267.536 382.546 267.536H380.206C380.139 267.536 380.079 267.516 380.026 267.476C379.986 267.423 379.966 267.363 379.966 267.296V256.076C379.966 256.009 379.933 255.976 379.866 255.976H376.386C376.319 255.976 376.259 255.956 376.206 255.916C376.166 255.863 376.146 255.803 376.146 255.736V253.776C376.146 253.709 376.166 253.656 376.206 253.616C376.259 253.563 376.319 253.536 376.386 253.536H386.466ZM399.225 255.716C399.225 255.783 399.198 255.843 399.145 255.896C399.105 255.936 399.052 255.956 398.985 255.956H392.425C392.358 255.956 392.325 255.989 392.325 256.056V259.156C392.325 259.223 392.358 259.256 392.425 259.256H396.725C396.792 259.256 396.845 259.283 396.885 259.336C396.938 259.376 396.965 259.429 396.965 259.496V261.436C396.965 261.503 396.938 261.563 396.885 261.616C396.845 261.656 396.792 261.676 396.725 261.676H392.425C392.358 261.676 392.325 261.709 392.325 261.776V265.016C392.325 265.083 392.358 265.116 392.425 265.116H398.985C399.052 265.116 399.105 265.143 399.145 265.196C399.198 265.236 399.225 265.289 399.225 265.356V267.296C399.225 267.363 399.198 267.423 399.145 267.476C399.105 267.516 399.052 267.536 398.985 267.536H389.745C389.678 267.536 389.618 267.516 389.565 267.476C389.525 267.423 389.505 267.363 389.505 267.296V253.776C389.505 253.709 389.525 253.656 389.565 253.616C389.618 253.563 389.678 253.536 389.745 253.536H398.985C399.052 253.536 399.105 253.563 399.145 253.616C399.198 253.656 399.225 253.709 399.225 253.776V255.716ZM402.425 267.536C402.358 267.536 402.298 267.516 402.245 267.476C402.205 267.423 402.185 267.363 402.185 267.296V253.776C402.185 253.709 402.205 253.656 402.245 253.616C402.298 253.563 402.358 253.536 402.425 253.536H407.425C408.425 253.536 409.298 253.716 410.045 254.076C410.805 254.423 411.392 254.916 411.805 255.556C412.218 256.196 412.425 256.936 412.425 257.776V263.296C412.425 264.136 412.218 264.876 411.805 265.516C411.392 266.156 410.805 266.656 410.045 267.016C409.298 267.363 408.425 267.536 407.425 267.536H402.425ZM405.005 265.016C405.005 265.083 405.038 265.116 405.105 265.116H407.525C408.138 265.116 408.632 264.909 409.005 264.496C409.392 264.083 409.592 263.529 409.605 262.836V258.236C409.605 257.543 409.412 256.989 409.025 256.576C408.652 256.163 408.145 255.956 407.505 255.956H405.105C405.038 255.956 405.005 255.989 405.005 256.056V265.016ZM425.472 267.696C424.432 267.696 423.519 267.496 422.732 267.096C421.945 266.683 421.339 266.109 420.912 265.376C420.485 264.643 420.272 263.796 420.272 262.836V258.216C420.272 257.256 420.485 256.409 420.912 255.676C421.339 254.943 421.945 254.376 422.732 253.976C423.519 253.576 424.432 253.376 425.472 253.376C426.499 253.376 427.399 253.569 428.172 253.956C428.959 254.329 429.565 254.869 429.992 255.576C430.432 256.269 430.652 257.076 430.652 257.996C430.652 258.116 430.572 258.189 430.412 258.216L428.072 258.356H428.032C427.899 258.356 427.832 258.283 427.832 258.136C427.832 257.429 427.612 256.863 427.172 256.436C426.745 256.009 426.179 255.796 425.472 255.796C424.752 255.796 424.172 256.009 423.732 256.436C423.305 256.863 423.092 257.429 423.092 258.136V262.956C423.092 263.649 423.305 264.209 423.732 264.636C424.172 265.063 424.752 265.276 425.472 265.276C426.179 265.276 426.745 265.063 427.172 264.636C427.612 264.209 427.832 263.649 427.832 262.956C427.832 262.809 427.912 262.736 428.072 262.736L430.412 262.836C430.479 262.836 430.532 262.856 430.572 262.896C430.625 262.936 430.652 262.983 430.652 263.036C430.652 263.956 430.432 264.769 429.992 265.476C429.565 266.183 428.959 266.729 428.172 267.116C427.399 267.503 426.499 267.696 425.472 267.696ZM438.7 267.756C437.66 267.756 436.74 267.543 435.94 267.116C435.153 266.689 434.54 266.096 434.1 265.336C433.66 264.563 433.44 263.676 433.44 262.676V258.396C433.44 257.409 433.66 256.536 434.1 255.776C434.54 255.016 435.153 254.429 435.94 254.016C436.74 253.589 437.66 253.376 438.7 253.376C439.753 253.376 440.673 253.589 441.46 254.016C442.26 254.429 442.88 255.016 443.32 255.776C443.76 256.536 443.98 257.409 443.98 258.396V262.676C443.98 263.676 443.76 264.563 443.32 265.336C442.88 266.109 442.26 266.709 441.46 267.136C440.673 267.549 439.753 267.756 438.7 267.756ZM438.7 265.336C439.433 265.336 440.027 265.103 440.48 264.636C440.933 264.169 441.16 263.549 441.16 262.776V258.376C441.16 257.603 440.933 256.983 440.48 256.516C440.04 256.036 439.447 255.796 438.7 255.796C437.967 255.796 437.373 256.036 436.92 256.516C436.48 256.983 436.26 257.603 436.26 258.376V262.776C436.26 263.549 436.48 264.169 436.92 264.636C437.373 265.103 437.967 265.336 438.7 265.336ZM455.182 253.776C455.182 253.709 455.202 253.656 455.242 253.616C455.295 253.563 455.355 253.536 455.422 253.536H457.762C457.829 253.536 457.882 253.563 457.922 253.616C457.975 253.656 458.002 253.709 458.002 253.776V267.296C458.002 267.363 457.975 267.423 457.922 267.476C457.882 267.516 457.829 267.536 457.762 267.536H455.502C455.369 267.536 455.275 267.483 455.222 267.376L450.042 258.816C450.015 258.776 449.989 258.763 449.962 258.776C449.935 258.776 449.922 258.803 449.922 258.856L449.962 267.296C449.962 267.363 449.935 267.423 449.882 267.476C449.842 267.516 449.789 267.536 449.722 267.536H447.382C447.315 267.536 447.255 267.516 447.202 267.476C447.162 267.423 447.142 267.363 447.142 267.296V253.776C447.142 253.709 447.162 253.656 447.202 253.616C447.255 253.563 447.315 253.536 447.382 253.536H449.642C449.775 253.536 449.869 253.589 449.922 253.696L455.082 262.216C455.109 262.256 455.135 262.276 455.162 262.276C455.189 262.263 455.202 262.229 455.202 262.176L455.182 253.776ZM469.365 253.776C469.365 253.709 469.385 253.656 469.425 253.616C469.479 253.563 469.539 253.536 469.605 253.536H471.945C472.012 253.536 472.065 253.563 472.105 253.616C472.159 253.656 472.185 253.709 472.185 253.776V267.296C472.185 267.363 472.159 267.423 472.105 267.476C472.065 267.516 472.012 267.536 471.945 267.536H469.685C469.552 267.536 469.459 267.483 469.405 267.376L464.225 258.816C464.199 258.776 464.172 258.763 464.145 258.776C464.119 258.776 464.105 258.803 464.105 258.856L464.145 267.296C464.145 267.363 464.119 267.423 464.065 267.476C464.025 267.516 463.972 267.536 463.905 267.536H461.565C461.499 267.536 461.439 267.516 461.385 267.476C461.345 267.423 461.325 267.363 461.325 267.296V253.776C461.325 253.709 461.345 253.656 461.385 253.616C461.439 253.563 461.499 253.536 461.565 253.536H463.825C463.959 253.536 464.052 253.589 464.105 253.696L469.265 262.216C469.292 262.256 469.319 262.276 469.345 262.276C469.372 262.263 469.385 262.229 469.385 262.176L469.365 253.776ZM485.229 255.716C485.229 255.783 485.202 255.843 485.149 255.896C485.109 255.936 485.056 255.956 484.989 255.956H478.429C478.362 255.956 478.329 255.989 478.329 256.056V259.156C478.329 259.223 478.362 259.256 478.429 259.256H482.729C482.796 259.256 482.849 259.283 482.889 259.336C482.942 259.376 482.969 259.429 482.969 259.496V261.436C482.969 261.503 482.942 261.563 482.889 261.616C482.849 261.656 482.796 261.676 482.729 261.676H478.429C478.362 261.676 478.329 261.709 478.329 261.776V265.016C478.329 265.083 478.362 265.116 478.429 265.116H484.989C485.056 265.116 485.109 265.143 485.149 265.196C485.202 265.236 485.229 265.289 485.229 265.356V267.296C485.229 267.363 485.202 267.423 485.149 267.476C485.109 267.516 485.056 267.536 484.989 267.536H475.749C475.682 267.536 475.622 267.516 475.569 267.476C475.529 267.423 475.509 267.363 475.509 267.296V253.776C475.509 253.709 475.529 253.656 475.569 253.616C475.622 253.563 475.682 253.536 475.749 253.536H484.989C485.056 253.536 485.109 253.563 485.149 253.616C485.202 253.656 485.229 253.709 485.229 253.776V255.716ZM493.109 267.696C492.069 267.696 491.155 267.496 490.369 267.096C489.582 266.683 488.975 266.109 488.549 265.376C488.122 264.643 487.909 263.796 487.909 262.836V258.216C487.909 257.256 488.122 256.409 488.549 255.676C488.975 254.943 489.582 254.376 490.369 253.976C491.155 253.576 492.069 253.376 493.109 253.376C494.135 253.376 495.035 253.569 495.809 253.956C496.595 254.329 497.202 254.869 497.629 255.576C498.069 256.269 498.289 257.076 498.289 257.996C498.289 258.116 498.209 258.189 498.049 258.216L495.709 258.356H495.669C495.535 258.356 495.469 258.283 495.469 258.136C495.469 257.429 495.249 256.863 494.809 256.436C494.382 256.009 493.815 255.796 493.109 255.796C492.389 255.796 491.809 256.009 491.369 256.436C490.942 256.863 490.729 257.429 490.729 258.136V262.956C490.729 263.649 490.942 264.209 491.369 264.636C491.809 265.063 492.389 265.276 493.109 265.276C493.815 265.276 494.382 265.063 494.809 264.636C495.249 264.209 495.469 263.649 495.469 262.956C495.469 262.809 495.549 262.736 495.709 262.736L498.049 262.836C498.115 262.836 498.169 262.856 498.209 262.896C498.262 262.936 498.289 262.983 498.289 263.036C498.289 263.956 498.069 264.769 497.629 265.476C497.202 266.183 496.595 266.729 495.809 267.116C495.035 267.503 494.135 267.696 493.109 267.696ZM510.86 253.536C510.927 253.536 510.98 253.563 511.02 253.616C511.074 253.656 511.1 253.709 511.1 253.776V255.736C511.1 255.803 511.074 255.863 511.02 255.916C510.98 255.956 510.927 255.976 510.86 255.976H507.28C507.214 255.976 507.18 256.009 507.18 256.076V267.296C507.18 267.363 507.154 267.423 507.1 267.476C507.06 267.516 507.007 267.536 506.94 267.536H504.6C504.534 267.536 504.474 267.516 504.42 267.476C504.38 267.423 504.36 267.363 504.36 267.296V256.076C504.36 256.009 504.327 255.976 504.26 255.976H500.78C500.714 255.976 500.654 255.956 500.6 255.916C500.56 255.863 500.54 255.803 500.54 255.736V253.776C500.54 253.709 500.56 253.656 500.6 253.616C500.654 253.563 500.714 253.536 500.78 253.536H510.86ZM514.14 267.536C514.073 267.536 514.013 267.516 513.96 267.476C513.92 267.423 513.9 267.363 513.9 267.296V253.776C513.9 253.709 513.92 253.656 513.96 253.616C514.013 253.563 514.073 253.536 514.14 253.536H516.48C516.546 253.536 516.6 253.563 516.64 253.616C516.693 253.656 516.72 253.709 516.72 253.776V267.296C516.72 267.363 516.693 267.423 516.64 267.476C516.6 267.516 516.546 267.536 516.48 267.536H514.14ZM525.134 267.756C524.094 267.756 523.174 267.543 522.374 267.116C521.587 266.689 520.974 266.096 520.534 265.336C520.094 264.563 519.874 263.676 519.874 262.676V258.396C519.874 257.409 520.094 256.536 520.534 255.776C520.974 255.016 521.587 254.429 522.374 254.016C523.174 253.589 524.094 253.376 525.134 253.376C526.187 253.376 527.107 253.589 527.894 254.016C528.694 254.429 529.314 255.016 529.754 255.776C530.194 256.536 530.414 257.409 530.414 258.396V262.676C530.414 263.676 530.194 264.563 529.754 265.336C529.314 266.109 528.694 266.709 527.894 267.136C527.107 267.549 526.187 267.756 525.134 267.756ZM525.134 265.336C525.867 265.336 526.46 265.103 526.914 264.636C527.367 264.169 527.594 263.549 527.594 262.776V258.376C527.594 257.603 527.367 256.983 526.914 256.516C526.474 256.036 525.88 255.796 525.134 255.796C524.4 255.796 523.807 256.036 523.354 256.516C522.914 256.983 522.694 257.603 522.694 258.376V262.776C522.694 263.549 522.914 264.169 523.354 264.636C523.807 265.103 524.4 265.336 525.134 265.336ZM541.615 253.776C541.615 253.709 541.635 253.656 541.675 253.616C541.729 253.563 541.789 253.536 541.855 253.536H544.195C544.262 253.536 544.315 253.563 544.355 253.616C544.409 253.656 544.435 253.709 544.435 253.776V267.296C544.435 267.363 544.409 267.423 544.355 267.476C544.315 267.516 544.262 267.536 544.195 267.536H541.935C541.802 267.536 541.709 267.483 541.655 267.376L536.475 258.816C536.449 258.776 536.422 258.763 536.395 258.776C536.369 258.776 536.355 258.803 536.355 258.856L536.395 267.296C536.395 267.363 536.369 267.423 536.315 267.476C536.275 267.516 536.222 267.536 536.155 267.536H533.815C533.749 267.536 533.689 267.516 533.635 267.476C533.595 267.423 533.575 267.363 533.575 267.296V253.776C533.575 253.709 533.595 253.656 533.635 253.616C533.689 253.563 533.749 253.536 533.815 253.536H536.075C536.209 253.536 536.302 253.589 536.355 253.696L541.515 262.216C541.542 262.256 541.569 262.276 541.595 262.276C541.622 262.263 541.635 262.229 541.635 262.176L541.615 253.776ZM552.676 267.696C551.61 267.696 550.676 267.529 549.876 267.196C549.076 266.849 548.456 266.363 548.016 265.736C547.59 265.096 547.376 264.356 547.376 263.516V263.076C547.376 263.009 547.396 262.956 547.436 262.916C547.49 262.863 547.55 262.836 547.616 262.836H549.896C549.963 262.836 550.016 262.863 550.056 262.916C550.11 262.956 550.136 263.009 550.136 263.076V263.376C550.136 263.909 550.383 264.363 550.876 264.736C551.37 265.096 552.036 265.276 552.876 265.276C553.583 265.276 554.11 265.129 554.456 264.836C554.803 264.529 554.976 264.156 554.976 263.716C554.976 263.396 554.87 263.129 554.656 262.916C554.443 262.689 554.15 262.496 553.776 262.336C553.416 262.163 552.836 261.929 552.036 261.636C551.143 261.329 550.383 261.016 549.756 260.696C549.143 260.376 548.623 259.943 548.196 259.396C547.783 258.836 547.576 258.149 547.576 257.336C547.576 256.536 547.783 255.836 548.196 255.236C548.61 254.636 549.183 254.176 549.916 253.856C550.65 253.536 551.496 253.376 552.456 253.376C553.47 253.376 554.37 253.556 555.156 253.916C555.956 254.276 556.576 254.783 557.016 255.436C557.47 256.076 557.696 256.823 557.696 257.676V257.976C557.696 258.043 557.67 258.103 557.616 258.156C557.576 258.196 557.523 258.216 557.456 258.216H555.156C555.09 258.216 555.03 258.196 554.976 258.156C554.936 258.103 554.916 258.043 554.916 257.976V257.816C554.916 257.256 554.683 256.783 554.216 256.396C553.763 255.996 553.136 255.796 552.336 255.796C551.71 255.796 551.216 255.929 550.856 256.196C550.51 256.463 550.336 256.829 550.336 257.296C550.336 257.629 550.436 257.909 550.636 258.136C550.85 258.363 551.156 258.569 551.556 258.756C551.97 258.929 552.603 259.169 553.456 259.476C554.403 259.823 555.143 260.129 555.676 260.396C556.223 260.663 556.71 261.063 557.136 261.596C557.576 262.116 557.796 262.796 557.796 263.636C557.796 264.889 557.336 265.883 556.416 266.616C555.496 267.336 554.25 267.696 552.676 267.696Z" fill="#04C8BB"/>
<defs>
<filter id="filter0_ddd_236_28628" x="186.492" y="31.8896" width="218.699" height="232.698" filterUnits="userSpaceOnUse" color-interpolation-filters="sRGB">
<feFlood flood-opacity="0" result="BackgroundImageFix"/>
<feColorMatrix in="SourceAlpha" type="matrix" values="0 0 0 0 0 0 0 0 0 0 0 0 0 0 0 0 0 0 127 0" result="hardAlpha"/>
<feOffset dy="18"/>
<feGaussianBlur stdDeviation="21"/>
<feColorMatrix type="matrix" values="0 0 0 0 0.0901961 0 0 0 0 0.168627 0 0 0 0 0.301961 0 0 0 0.08 0"/>
<feBlend mode="normal" in2="BackgroundImageFix" result="effect1_dropShadow_236_28628"/>
<feColorMatrix in="SourceAlpha" type="matrix" values="0 0 0 0 0 0 0 0 0 0 0 0 0 0 0 0 0 0 127 0" result="hardAlpha"/>
<feOffset dy="4"/>
<feGaussianBlur stdDeviation="13"/>
<feColorMatrix type="matrix" values="0 0 0 0 0.0901961 0 0 0 0 0.168627 0 0 0 0 0.301961 0 0 0 0.05 0"/>
<feBlend mode="normal" in2="effect1_dropShadow_236_28628" result="effect2_dropShadow_236_28628"/>
<feColorMatrix in="SourceAlpha" type="matrix" values="0 0 0 0 0 0 0 0 0 0 0 0 0 0 0 0 0 0 127 0" result="hardAlpha"/>
<feOffset/>
<feGaussianBlur stdDeviation="23"/>
<feComposite in2="hardAlpha" operator="out"/>
<feColorMatrix type="matrix" values="0 0 0 0 0.0901961 0 0 0 0 0.168627 0 0 0 0 0.301961 0 0 0 0.01 0"/>
<feBlend mode="normal" in2="effect2_dropShadow_236_28628" result="effect3_dropShadow_236_28628"/>
<feBlend mode="normal" in="SourceGraphic" in2="effect3_dropShadow_236_28628" result="shape"/>
</filter>
<filter id="filter1_i_236_28628" x="232.492" y="77.8896" width="126.699" height="126.698" filterUnits="userSpaceOnUse" color-interpolation-filters="sRGB">
<feFlood flood-opacity="0" result="BackgroundImageFix"/>
<feBlend mode="normal" in="SourceGraphic" in2="BackgroundImageFix" result="shape"/>
<feColorMatrix in="SourceAlpha" type="matrix" values="0 0 0 0 0 0 0 0 0 0 0 0 0 0 0 0 0 0 127 0" result="hardAlpha"/>
<feOffset dy="0.812732"/>
<feComposite in2="hardAlpha" operator="arithmetic" k2="-1" k3="1"/>
<feColorMatrix type="matrix" values="0 0 0 0 1 0 0 0 0 1 0 0 0 0 1 0 0 0 0.4 0"/>
<feBlend mode="normal" in2="shape" result="effect1_innerShadow_236_28628"/>
</filter>
<filter id="filter2_d_236_28628" x="265.255" y="109.126" width="61.3734" height="69.1818" filterUnits="userSpaceOnUse" color-interpolation-filters="sRGB">
<feFlood flood-opacity="0" result="BackgroundImageFix"/>
<feColorMatrix in="SourceAlpha" type="matrix" values="0 0 0 0 0 0 0 0 0 0 0 0 0 0 0 0 0 0 127 0" result="hardAlpha"/>
<feOffset dy="2.37811"/>
<feGaussianBlur stdDeviation="1.18905"/>
<feComposite in2="hardAlpha" operator="out"/>
<feColorMatrix type="matrix" values="0 0 0 0 0 0 0 0 0 0 0 0 0 0 0 0 0 0 0.1 0"/>
<feBlend mode="normal" in2="BackgroundImageFix" result="effect1_dropShadow_236_28628"/>
<feBlend mode="normal" in="SourceGraphic" in2="effect1_dropShadow_236_28628" result="shape"/>
</filter>
<filter id="filter3_dd_236_28628" x="425.169" y="65.052" width="136.482" height="156.555" filterUnits="userSpaceOnUse" color-interpolation-filters="sRGB">
<feFlood flood-opacity="0" result="BackgroundImageFix"/>
<feColorMatrix in="SourceAlpha" type="matrix" values="0 0 0 0 0 0 0 0 0 0 0 0 0 0 0 0 0 0 127 0" result="hardAlpha"/>
<feOffset dy="5.01776"/>
<feGaussianBlur stdDeviation="1.50533"/>
<feColorMatrix type="matrix" values="0 0 0 0 0.0901961 0 0 0 0 0.168627 0 0 0 0 0.301961 0 0 0 0.08 0"/>
<feBlend mode="normal" in2="BackgroundImageFix" result="effect1_dropShadow_236_28628"/>
<feColorMatrix in="SourceAlpha" type="matrix" values="0 0 0 0 0 0 0 0 0 0 0 0 0 0 0 0 0 0 127 0" result="hardAlpha"/>
<feOffset dy="3.01065"/>
<feGaussianBlur stdDeviation="1.00355"/>
<feColorMatrix type="matrix" values="0 0 0 0 0.0901961 0 0 0 0 0.168627 0 0 0 0 0.301961 0 0 0 0.04 0"/>
<feBlend mode="normal" in2="effect1_dropShadow_236_28628" result="effect2_dropShadow_236_28628"/>
<feBlend mode="normal" in="SourceGraphic" in2="effect2_dropShadow_236_28628" result="shape"/>
</filter>
<filter id="filter4_i_236_28628" x="519.805" y="60.9492" width="55.2383" height="55.2393" filterUnits="userSpaceOnUse" color-interpolation-filters="sRGB">
<feFlood flood-opacity="0" result="BackgroundImageFix"/>
<feBlend mode="normal" in="SourceGraphic" in2="BackgroundImageFix" result="shape"/>
<feColorMatrix in="SourceAlpha" type="matrix" values="0 0 0 0 0 0 0 0 0 0 0 0 0 0 0 0 0 0 127 0" result="hardAlpha"/>
<feOffset dy="0.842294"/>
<feComposite in2="hardAlpha" operator="arithmetic" k2="-1" k3="1"/>
<feColorMatrix type="matrix" values="0 0 0 0 1 0 0 0 0 1 0 0 0 0 1 0 0 0 0.4 0"/>
<feBlend mode="normal" in2="shape" result="effect1_innerShadow_236_28628"/>
</filter>
<filter id="filter5_d_236_28628" x="518.486" y="79.0317" width="58.0623" height="48.6144" filterUnits="userSpaceOnUse" color-interpolation-filters="sRGB">
<feFlood flood-opacity="0" result="BackgroundImageFix"/>
<feColorMatrix in="SourceAlpha" type="matrix" values="0 0 0 0 0 0 0 0 0 0 0 0 0 0 0 0 0 0 127 0" result="hardAlpha"/>
<feOffset dy="13.2948"/>
<feGaussianBlur stdDeviation="6.64741"/>
<feComposite in2="hardAlpha" operator="out"/>
<feColorMatrix type="matrix" values="0 0 0 0 0 0 0 0 0 0 0 0 0 0 0 0 0 0 0.1 0"/>
<feBlend mode="normal" in2="BackgroundImageFix" result="effect1_dropShadow_236_28628"/>
<feBlend mode="normal" in="SourceGraphic" in2="effect1_dropShadow_236_28628" result="shape"/>
</filter>
<linearGradient id="paint0_linear_236_28628" x1="662.111" y1="235.719" x2="-142.366" y2="265.487" gradientUnits="userSpaceOnUse">
<stop stop-color="#6B8692"/>
<stop offset="0.991803" stop-color="#1A202C"/>
</linearGradient>
<linearGradient id="paint1_linear_236_28628" x1="662.111" y1="225.112" x2="-142.366" y2="254.88" gradientUnits="userSpaceOnUse">
<stop stop-color="#6B8692"/>
<stop offset="0.991803" stop-color="#1A202C"/>
</linearGradient>
<linearGradient id="paint2_linear_236_28628" x1="662.111" y1="214.507" x2="-142.366" y2="244.275" gradientUnits="userSpaceOnUse">
<stop stop-color="#6B8692"/>
<stop offset="0.991803" stop-color="#1A202C"/>
</linearGradient>
<linearGradient id="paint3_linear_236_28628" x1="662.111" y1="203.901" x2="-142.366" y2="233.669" gradientUnits="userSpaceOnUse">
<stop stop-color="#6B8692"/>
<stop offset="0.991803" stop-color="#1A202C"/>
</linearGradient>
<linearGradient id="paint4_linear_236_28628" x1="662.111" y1="18.2568" x2="-142.366" y2="-11.5112" gradientUnits="userSpaceOnUse">
<stop stop-color="#6B8692"/>
<stop offset="0.991803" stop-color="#1A202C"/>
</linearGradient>
<linearGradient id="paint5_linear_236_28628" x1="662.111" y1="28.8622" x2="-142.366" y2="-0.905745" gradientUnits="userSpaceOnUse">
<stop stop-color="#6B8692"/>
<stop offset="0.991803" stop-color="#1A202C"/>
</linearGradient>
<linearGradient id="paint6_linear_236_28628" x1="662.111" y1="39.4687" x2="-142.366" y2="9.70072" gradientUnits="userSpaceOnUse">
<stop stop-color="#6B8692"/>
<stop offset="0.991803" stop-color="#1A202C"/>
</linearGradient>
<linearGradient id="paint7_linear_236_28628" x1="662.111" y1="50.0742" x2="-142.366" y2="20.3062" gradientUnits="userSpaceOnUse">
<stop stop-color="#6B8692"/>
<stop offset="0.991803" stop-color="#1A202C"/>
</linearGradient>
<linearGradient id="paint8_linear_236_28628" x1="662.111" y1="60.6807" x2="-142.366" y2="30.9127" gradientUnits="userSpaceOnUse">
<stop stop-color="#6B8692"/>
<stop offset="0.991803" stop-color="#1A202C"/>
</linearGradient>
<linearGradient id="paint9_linear_236_28628" x1="662.111" y1="71.2861" x2="-142.366" y2="41.5181" gradientUnits="userSpaceOnUse">
<stop stop-color="#6B8692"/>
<stop offset="0.991803" stop-color="#1A202C"/>
</linearGradient>
<linearGradient id="paint10_linear_236_28628" x1="662.11" y1="81.8915" x2="-142.368" y2="52.1235" gradientUnits="userSpaceOnUse">
<stop stop-color="#6B8692"/>
<stop offset="0.991803" stop-color="#1A202C"/>
</linearGradient>
<linearGradient id="paint11_linear_236_28628" x1="662.111" y1="267.536" x2="-142.366" y2="297.304" gradientUnits="userSpaceOnUse">
<stop stop-color="#6B8692"/>
<stop offset="0.991803" stop-color="#1A202C"/>
</linearGradient>
<linearGradient id="paint12_linear_236_28628" x1="662.111" y1="256.931" x2="-142.366" y2="286.699" gradientUnits="userSpaceOnUse">
<stop stop-color="#6B8692"/>
<stop offset="0.991803" stop-color="#1A202C"/>
</linearGradient>
<linearGradient id="paint13_linear_236_28628" x1="662.111" y1="246.324" x2="-142.366" y2="276.092" gradientUnits="userSpaceOnUse">
<stop stop-color="#6B8692"/>
<stop offset="0.991803" stop-color="#1A202C"/>
</linearGradient>
<linearGradient id="paint14_linear_236_28628" x1="331.581" y1="88.4997" x2="483.182" y2="115.556" gradientUnits="userSpaceOnUse">
<stop stop-color="#187367"/>
<stop offset="0.991803" stop-color="#92EFE6"/>
</linearGradient>
<linearGradient id="paint15_linear_236_28628" x1="331.581" y1="99.1872" x2="483.182" y2="126.243" gradientUnits="userSpaceOnUse">
<stop stop-color="#187367"/>
<stop offset="0.991803" stop-color="#92EFE6"/>
</linearGradient>
<linearGradient id="paint16_linear_236_28628" x1="331.581" y1="109.84" x2="483.182" y2="136.896" gradientUnits="userSpaceOnUse">
<stop stop-color="#187367"/>
<stop offset="0.991803" stop-color="#92EFE6"/>
</linearGradient>
<linearGradient id="paint17_linear_236_28628" x1="331.581" y1="120.466" x2="483.182" y2="147.523" gradientUnits="userSpaceOnUse">
<stop stop-color="#187367"/>
<stop offset="0.991803" stop-color="#92EFE6"/>
</linearGradient>
<linearGradient id="paint18_linear_236_28628" x1="331.581" y1="131.006" x2="483.182" y2="158.062" gradientUnits="userSpaceOnUse">
<stop stop-color="#187367"/>
<stop offset="0.991803" stop-color="#92EFE6"/>
</linearGradient>
<linearGradient id="paint19_linear_236_28628" x1="331.581" y1="141.633" x2="483.182" y2="168.689" gradientUnits="userSpaceOnUse">
<stop stop-color="#187367"/>
<stop offset="0.991803" stop-color="#92EFE6"/>
</linearGradient>
<linearGradient id="paint20_linear_236_28628" x1="331.581" y1="152.259" x2="483.182" y2="179.316" gradientUnits="userSpaceOnUse">
<stop stop-color="#187367"/>
<stop offset="0.991803" stop-color="#92EFE6"/>
</linearGradient>
<linearGradient id="paint21_linear_236_28628" x1="428.41" y1="156.292" x2="558.348" y2="156.292" gradientUnits="userSpaceOnUse">
<stop stop-color="#B4C5CD"/>
<stop offset="0.718232" stop-color="#6C8A98"/>
<stop offset="1" stop-color="#6B8692"/>
</linearGradient>
<linearGradient id="paint22_linear_236_28628" x1="536.399" y1="132.651" x2="470.461" y2="193.926" gradientUnits="userSpaceOnUse">
<stop stop-color="#648697"/>
<stop offset="1" stop-color="#B8CCD5"/>
</linearGradient>
<radialGradient id="paint23_radial_236_28628" cx="0" cy="0" r="1" gradientUnits="userSpaceOnUse" gradientTransform="translate(456.951 187.35) rotate(-140.974) scale(36.7392 31.5249)">
<stop stop-color="white"/>
<stop offset="1" stop-color="white" stop-opacity="0"/>
</radialGradient>
<linearGradient id="paint24_linear_236_28628" x1="431.699" y1="140.052" x2="555.058" y2="140.052" gradientUnits="userSpaceOnUse">
<stop stop-color="#183C56"/>
<stop offset="0.286458" stop-color="#335D7B"/>
<stop offset="1" stop-color="#082133"/>
</linearGradient>
<linearGradient id="paint25_linear_236_28628" x1="431.699" y1="133.293" x2="555.058" y2="133.293" gradientUnits="userSpaceOnUse">
<stop stop-color="#183C56"/>
<stop offset="0.286458" stop-color="#335D7B"/>
<stop offset="1" stop-color="#082133"/>
</linearGradient>
<linearGradient id="paint26_linear_236_28628" x1="428.41" y1="125.657" x2="558.348" y2="125.657" gradientUnits="userSpaceOnUse">
<stop stop-color="#B4C5CD"/>
<stop offset="0.718232" stop-color="#6C8A98"/>
<stop offset="1" stop-color="#6B8692"/>
</linearGradient>
<linearGradient id="paint27_linear_236_28628" x1="536.399" y1="92.565" x2="466.272" y2="153.389" gradientUnits="userSpaceOnUse">
<stop stop-color="#648697"/>
<stop offset="1" stop-color="#B8CCD5"/>
</linearGradient>
<radialGradient id="paint28_radial_236_28628" cx="0" cy="0" r="1" gradientUnits="userSpaceOnUse" gradientTransform="translate(456.951 151.171) rotate(-139.028) scale(37.8014 32.8276)">
<stop stop-color="white"/>
<stop offset="1" stop-color="white" stop-opacity="0"/>
</radialGradient>
<linearGradient id="paint29_linear_236_28628" x1="431.699" y1="101.958" x2="555.058" y2="101.958" gradientUnits="userSpaceOnUse">
<stop stop-color="#183C56"/>
<stop offset="0.286458" stop-color="#335D7B"/>
<stop offset="1" stop-color="#082133"/>
</linearGradient>
<linearGradient id="paint30_linear_236_28628" x1="431.699" y1="94.4473" x2="555.058" y2="94.4473" gradientUnits="userSpaceOnUse">
<stop stop-color="#183C56"/>
<stop offset="0.286458" stop-color="#335D7B"/>
<stop offset="1" stop-color="#082133"/>
</linearGradient>
<linearGradient id="paint31_linear_236_28628" x1="428.41" y1="87.8726" x2="558.348" y2="87.8726" gradientUnits="userSpaceOnUse">
<stop stop-color="#B4C5CD"/>
<stop offset="0.718232" stop-color="#6C8A98"/>
<stop offset="1" stop-color="#6B8692"/>
</linearGradient>
<linearGradient id="paint32_linear_236_28628" x1="537.281" y1="71.1209" x2="480.151" y2="132.986" gradientUnits="userSpaceOnUse">
<stop stop-color="#B9CAD2"/>
<stop offset="1" stop-color="#DBE6EB"/>
</linearGradient>
<radialGradient id="paint33_radial_236_28628" cx="0" cy="0" r="1" gradientUnits="userSpaceOnUse" gradientTransform="translate(447.191 109.861) rotate(-34.7432) scale(56.6711 153.401)">
<stop stop-color="white"/>
<stop offset="1" stop-color="white" stop-opacity="0"/>
</radialGradient>
</defs>
</svg>
